<svg id="svg" version="1.1" xmlns="http://www.w3.org/2000/svg" style="display: block;" viewBox="0 0 1024 452"><path d="M0 0 C337.92 0 675.84 0 1024 0 C1024 149.16 1024 298.32 1024 452 C686.08 452 348.16 452 0 452 C0 302.84 0 153.68 0 0 Z " transform="translate(0,0)" style="fill: #08090E;"/><path d="M0 0 C3.01083904 1.20193562 5.95712803 2.52187516 8.89892578 3.88305664 C9.86056641 4.32262695 10.82220703 4.76219727 11.81298828 5.21508789 C21.33278554 9.97498652 30.06526283 17.09949787 36.83642578 25.32055664 C42.29866607 32.93787437 46.42795055 41.38874225 48.42626953 50.56665039 C50.01404983 61.70735679 49.35177252 72.38966187 46.14501953 83.16821289 C43.07056727 92.33374298 38.91925863 99.61669028 32.27734375 106.65209961 C24.38581083 114.6335796 15.24224666 120.55386645 4.89892578 124.88305664 C-20.53380279 134.19868667 -47.76721915 135.67469037 -74.61206055 133.42041016 C-89.81683696 131.80317964 -104.55438916 128.01580102 -118.10107422 120.88305664 C-119.01759766 120.45637695 -119.93412109 120.02969727 -120.87841797 119.59008789 C-130.06368933 115.09628942 -137.5377311 108.16422901 -144.18701172 100.46899414 C-146.58484858 97.34595784 -148.32737272 94.43045964 -150.10107422 90.88305664 C-150.43107422 121.57305664 -150.76107422 152.26305664 -151.10107422 183.88305664 C-172.55107422 183.55305664 -194.00107422 183.22305664 -216.10107422 182.88305664 C-216.10107422 121.17305664 -216.10107422 59.46305664 -216.10107422 -4.11694336 C-195.97107422 -4.11694336 -175.84107422 -4.11694336 -155.10107422 -4.11694336 C-153.4677242 -0.85024332 -153.61218707 2.79263949 -153.34716797 6.39086914 C-153.24940819 7.65179886 -153.24940819 7.65179886 -153.14967346 8.9382019 C-152.94205172 11.62786918 -152.74024922 14.31793757 -152.53857422 17.00805664 C-152.39898279 18.82970058 -152.25901362 20.65131561 -152.11865234 22.47290039 C-151.77507279 26.94262867 -151.43671218 31.41272529 -151.10107422 35.88305664 C-150.19941528 34.66525513 -150.19941528 34.66525513 -149.27954102 33.42285156 C-148.47407551 32.34048896 -147.66848623 31.25821847 -146.86279297 30.17602539 C-146.07606201 29.11665771 -145.28933105 28.05729004 -144.47875977 26.96582031 C-137.50566704 17.92492886 -129.17306138 11.17519735 -119.10107422 5.88305664 C-83.88655999 -11.21898153 -36.86188485 -13.8036971 0 0 Z " transform="translate(464.10107421875,173.116943359375)" style="fill: #EFEFF0;"/><path d="M0 0 C8.830664 3.7800487 17.0009486 7.85993297 23.9453125 14.640625 C28.16302764 19.48378079 31.0692119 24.58841266 33.375 30.5625 C34 34 34 34 34 43 C14.86 42.67 -4.28 42.34 -24 42 C-25.98 39.525 -25.98 39.525 -28 37 C-31.71250935 34.3798708 -35.87849678 33.23575543 -40.2890625 32.30859375 C-55.98520474 29.90543707 -73.21370168 29.6676997 -88.66796875 33.6953125 C-91.29688249 34.60513693 -93.53761519 35.61090696 -95.67578125 37.41015625 C-96.11277344 37.93480469 -96.54976563 38.45945313 -97 39 C-97.5 42 -97.5 42 -97 45 C-95.72840348 46.85602615 -95.72840348 46.85602615 -94 48 C-90.48390258 49.75804871 -86.37796079 49.35964869 -82.5 49.5 C-80.92593384 49.56199585 -80.92593384 49.56199585 -79.32006836 49.62524414 C-71.1639166 49.91886338 -63.00787094 50.08033683 -54.84765625 50.21484375 C-53.2226973 50.24277512 -53.2226973 50.24277512 -51.56491089 50.27127075 C-46.07590371 50.36519171 -40.58702928 50.45017245 -35.09765625 50.51953125 C5.22669126 51.11778014 5.22669126 51.11778014 22.6875 59.5 C27.5217415 62.16772524 31.33451942 64.95604293 34.6875 69.375 C36.89119677 72.40418578 38.02511547 75.38209518 39 79 C39.55394222 85.21574703 39.78969556 91.65679783 38.34765625 97.76171875 C36.07262698 103.35653322 32.3638105 107.88096804 28 112 C20.42261381 118.61095431 11.54322755 122.22112123 2 125 C-31.69613714 133.96803819 -72.53117437 134.43295869 -106.83105469 128.51123047 C-122.00683696 125.6629077 -136.64966559 121.61094402 -149.56640625 112.83984375 C-154.30096536 109.26042587 -158.36564663 105.61413154 -161.53125 100.55078125 C-164.19235071 95.49933136 -165.95456001 90.60735995 -167 85 C-167.0262247 83.33353967 -167.03154914 81.66636804 -167 80 C-159.29814809 79.8606014 -151.59642797 79.75417834 -143.89359951 79.68912697 C-140.31622502 79.65789473 -136.73971742 79.61557618 -133.1628418 79.54736328 C-129.70682908 79.48187242 -126.25164674 79.44623305 -122.79506111 79.43073654 C-120.84343672 79.41435497 -118.89214367 79.36756232 -116.94102478 79.32022095 C-113.52222686 79.31893059 -110.36484199 79.39302525 -107 80 C-104.71557939 81.31786845 -103.12990899 82.62696252 -101.35935974 84.56886292 C-99.89740574 86.29104448 -99.89740574 86.29104448 -96.7890625 87.42578125 C-95.22285156 87.86470703 -95.22285156 87.86470703 -93.625 88.3125 C-92.58601563 88.61800781 -91.54703125 88.92351562 -90.4765625 89.23828125 C-74.3307968 92.77583666 -55.96583 92.21830341 -39.69921875 89.73046875 C-36.52409794 88.8712103 -33.86660379 87.6051364 -31 86 C-30.34 85.34 -29.68 84.68 -29 84 C-28.5832448 81.04211431 -28.5832448 81.04211431 -29 78 C-30.03959519 76.12640605 -30.03959519 76.12640605 -32 75 C-36.17931502 73.37737845 -39.67140017 72.74705154 -44.14355469 72.72875977 C-45.93898712 72.71347984 -45.93898712 72.71347984 -47.77069092 72.69789124 C-49.05808167 72.69575119 -50.34547241 72.69361115 -51.671875 72.69140625 C-53.0359197 72.6802715 -54.39995459 72.6678709 -55.76397705 72.65428162 C-61.51736491 72.59946131 -67.2708283 72.56878564 -73.02441406 72.54370117 C-87.51681317 72.47409412 -101.90880005 72.30170453 -116.328125 70.65234375 C-117.84511993 70.47899254 -117.84511993 70.47899254 -119.39276123 70.30213928 C-130.67181532 68.86095566 -141.86569031 66.2818648 -152 61 C-155.80964696 58.45401045 -158.8817652 55.77026676 -161.33984375 51.87890625 C-163.32808752 48.02270393 -164.89195339 44.36209575 -165.23828125 39.99609375 C-165.35728441 34.29020547 -165.40701541 29.03695902 -163.4375 23.625 C-161.08921153 18.64304077 -158.108371 14.66546112 -154 11 C-142.41830116 2.23152138 -129.4513022 -1.85103889 -115.453125 -4.93359375 C-107.35828943 -6.59587483 -99.23053738 -7.38390868 -91 -8 C-89.71351562 -8.11085937 -88.42703125 -8.22171875 -87.1015625 -8.3359375 C-58.87604647 -10.48922429 -26.62522045 -10.88911759 0 0 Z " transform="translate(198,176)" style="fill: #F0F0F1;"/><path d="M0 0 C21.45 0 42.9 0 65 0 C65 13.2 65 26.4 65 40 C80.51 40 96.02 40 112 40 C112 53.53 112 67.06 112 81 C96.49 81 80.98 81 65 81 C65 111.36 65 141.72 65 173 C43.55 173 22.1 173 0 173 C0 142.64 0 112.28 0 81 C-15.51 81 -31.02 81 -47 81 C-47 67.8 -47 54.6 -47 41 C-31.49 41 -15.98 41 0 41 C0 27.47 0 13.94 0 0 Z " transform="translate(781,128)" style="fill: #F0F0F1;"/><path d="M0 0 C21.45 0 42.9 0 65 0 C65 61.71 65 123.42 65 187 C43.55 187 22.1 187 0 187 C0 125.29 0 63.58 0 0 Z " transform="translate(527,116)" style="fill: #F0F0F0;"/><path d="M0 0 C38.28 0 76.56 0 116 0 C116 43.56 116 87.12 116 132 C94.88 132 73.76 132 52 132 C52 105.27 52 78.54 52 51 C34.84 51 17.68 51 0 51 C0 34.17 0 17.34 0 0 Z " transform="translate(604,171)" style="fill: #A8F602;"/><path d="M0 0 C22.11 0 44.22 0 67 0 C67 43.56 67 87.12 67 132 C44.89 132 22.78 132 0 132 C0 88.44 0 44.88 0 0 Z " transform="translate(906,116)" style="fill: #F0F1F1;"/><path d="M0 0 C0.8652832 0.04108887 1.73056641 0.08217773 2.62207031 0.12451172 C16.60261794 0.87304258 29.15756144 2.57411913 41.98828125 8.34375 C45.58426762 10.2616094 48.27998477 12.13805158 50.90234375 15.27734375 C53.09376035 18.45876503 54.77617898 21.32853693 56 25 C56.43612801 28.39556809 56.4181876 31.60162487 56 35 C54.54169276 39.46647464 52.50944322 43.29271713 49.390625 46.8203125 C44.69548069 51.10624699 39.43957302 53.87953303 33.421875 55.83984375 C9.23192872 62.48216507 -17.31079348 61.3538734 -41.85546875 57.375 C-51.01255048 55.61747941 -59.31194068 52.64236071 -67.4375 48.0625 C-70.46964047 45.6219967 -72.72431289 43.16067654 -75 40 C-76.52421217 36.66124953 -77.0116244 33.90036232 -77.4375 30.25 C-77.32421908 26.77160934 -76.41471273 24.04738612 -75 20.875 C-73.19152683 17.59463061 -71.39448927 15.07300069 -68.5 12.6875 C-59.74792703 6.907213 -49.62090045 4.28394092 -39.375 2.625 C-26.33205961 0.69005829 -13.19324658 -0.63857452 0 0 Z " transform="translate(390,206)" style="fill: #06080E;"/><path d="M0 0 C22.77 0 45.54 0 69 0 C69 13.53 69 27.06 69 41 C46.56 41 24.12 41 1 41 C0.67 27.47 0.34 13.94 0 0 Z " transform="translate(905,263)" style="fill: #F2F2F2;"/></svg>